<svg version="1.1" id="Layer_1" xmlns="http://www.w3.org/2000/svg" xmlns:xlink="http://www.w3.org/1999/xlink" x="0px" y="0px"
	 width="100%" viewBox="0 0 808 127" enable-background="new 0 0 808 127" xml:space="preserve">
<path fill="#2E4087" opacity="1.000000" stroke="none" 
	d="
M552.000000,128.000000 
	C368.000000,128.000000 184.500000,128.000000 1.000000,128.000000 
	C1.000000,85.666664 1.000000,43.333332 1.000000,1.000000 
	C270.333344,1.000000 539.666687,1.000000 809.000000,1.000000 
	C809.000000,43.333332 809.000000,85.666664 809.000000,128.000000 
	C723.500000,128.000000 638.000000,128.000000 552.000000,128.000000 
M407.663330,108.431747 
	C407.663330,99.692421 407.663330,90.953102 407.663330,82.303513 
	C418.049286,81.545647 418.048706,81.545952 422.390564,89.958519 
	C426.663116,98.236740 430.788422,106.597519 435.339294,114.719849 
	C436.220123,116.291901 438.747162,117.820557 440.546387,117.858124 
	C453.370483,118.125931 466.202728,118.001617 479.032410,118.001999 
	C482.149994,118.002098 485.267609,118.002007 488.375366,118.002007 
	C490.262146,110.012978 492.010803,102.608635 493.735748,95.304863 
	C503.948639,95.304863 513.715332,95.304863 523.548584,95.304863 
	C525.359070,102.983452 527.106140,110.393257 528.851379,117.795143 
	C539.014404,117.795143 548.790344,117.795143 558.554871,117.795143 
	C558.596802,117.262466 558.722229,116.906242 558.634033,116.614571 
	C548.192749,82.072922 537.692200,47.549042 527.360657,12.974650 
	C526.521118,10.165107 525.041260,9.890696 522.675476,9.911897 
	C513.845398,9.991029 505.006561,10.155918 496.187073,9.839681 
	C492.556549,9.709502 491.386261,11.125310 490.450897,14.318187 
	C485.448730,31.392796 480.214569,48.399471 475.056061,65.428246 
	C470.990692,78.848495 466.918732,92.266762 462.538116,106.713501 
	C456.586304,96.073723 451.178131,86.405739 445.688812,76.592743 
	C446.793915,75.817818 447.605804,75.263161 448.402588,74.687622 
	C462.266296,64.673523 464.881958,50.646000 461.740173,35.108906 
	C458.819305,20.664120 448.391266,12.840998 434.708923,11.499124 
	C416.416473,9.705126 397.916046,10.031408 379.291809,9.440401 
	C379.291809,46.195667 379.291809,81.907318 379.291809,117.658058 
	C388.808716,117.658058 398.027893,117.658058 407.663330,117.658058 
	C407.663330,114.686996 407.663330,112.047302 407.663330,108.431747 
M99.986397,105.503380 
	C127.531670,133.056061 173.720947,121.265450 183.358444,83.818161 
	C185.637436,74.962898 186.138855,65.323715 185.644089,56.142895 
	C184.222107,29.757538 169.163635,12.691664 144.890640,8.513251 
	C124.470009,4.997993 104.842613,13.093205 94.645248,28.844429 
	C82.363106,47.815887 82.224686,86.352287 99.986397,105.503380 
M365.241425,42.368404 
	C357.617737,17.437050 335.667511,4.169434 309.414124,8.421844 
	C288.815948,11.758243 275.806732,23.569395 270.421844,43.506954 
	C266.664459,57.418743 266.854401,71.512299 270.942078,85.401184 
	C277.430420,107.447014 294.440216,119.969635 317.691193,120.001793 
	C341.420227,120.034615 358.476166,107.682098 365.023956,85.516487 
	C369.174835,71.464897 369.054260,57.301167 365.241425,42.368404 
M708.390686,101.071098 
	C720.895081,117.700287 738.038269,122.231194 757.608276,119.197052 
	C777.205017,116.158768 789.842773,104.300835 794.789490,85.441139 
	C797.234741,76.118103 798.083801,66.018318 797.636780,56.363422 
	C796.407532,29.814537 781.103577,12.549129 756.621643,8.456558 
	C734.366760,4.736285 712.949463,14.167197 704.478333,33.073891 
	C694.286072,55.821762 695.006958,78.620979 708.390686,101.071098 
M633.497681,22.996395 
	C626.806458,19.440525 620.475403,14.642588 613.352051,12.576607 
	C596.343384,7.643559 578.735840,10.749119 561.323059,9.931957 
	C561.323059,46.290951 561.323059,81.988533 561.323059,117.807755 
	C575.109192,117.807755 588.618591,118.532593 602.021545,117.646271 
	C624.963257,116.129173 640.546204,103.450607 645.739990,83.080757 
	C649.000854,70.291763 649.023010,57.357933 645.842224,44.525532 
	C643.845703,36.471169 640.078186,29.304884 633.497681,22.996395 
M53.508522,33.884777 
	C62.930382,33.884777 72.352242,33.884777 81.767822,33.884777 
	C81.767822,25.564316 81.767822,17.981585 81.767822,10.305372 
	C58.434792,10.305372 35.393719,10.305372 12.331697,10.305372 
	C12.331697,46.309315 12.331697,82.004387 12.331697,117.619972 
	C21.882376,117.619972 31.094549,117.619972 40.919186,117.619972 
	C40.919186,104.541359 40.919186,91.838066 40.919186,78.672272 
	C52.949688,78.672272 64.362000,78.672272 75.839645,78.672272 
	C75.839645,70.606644 75.839645,63.026863 75.839645,54.861801 
	C64.021629,54.861801 52.468231,54.861801 40.922058,54.861801 
	C40.922058,47.664486 40.922058,41.058521 40.922058,33.884777 
	C44.944954,33.884777 48.729179,33.884777 53.508522,33.884777 
M241.999817,74.500000 
	C241.999817,61.071022 241.999817,47.642040 241.999817,33.787910 
	C251.732300,33.787910 260.823975,33.787910 270.055542,33.787910 
	C270.055542,25.647640 270.055542,17.948299 270.055542,10.311916 
	C241.575790,10.311916 213.500824,10.311916 185.326080,10.311916 
	C185.326080,18.206642 185.326080,25.783407 185.326080,33.898800 
	C194.663879,33.898800 203.736053,33.898800 213.376984,33.898800 
	C213.376984,62.155441 213.376984,89.877525 213.376984,117.694839 
	C223.192398,117.694839 232.423325,117.694839 241.999817,117.694839 
	C241.999817,103.426247 241.999817,89.463120 241.999817,74.500000 
M683.248108,118.003357 
	C684.650391,117.878082 686.052673,117.752815 687.326416,117.639030 
	C687.326416,81.504349 687.326416,45.912868 687.326416,10.344545 
	C677.736816,10.344545 668.497742,10.344545 659.401550,10.344545 
	C659.401550,46.413666 659.401550,82.131180 659.401550,118.003899 
	C667.303284,118.003899 674.799133,118.003899 683.248108,118.003357 
z"/>
<path fill="#FDD884" opacity="1.000000" stroke="none" 
	d="
M407.663330,108.919678 
	C407.663330,112.047302 407.663330,114.686996 407.663330,117.658058 
	C398.027893,117.658058 388.808716,117.658058 379.291809,117.658058 
	C379.291809,81.907318 379.291809,46.195667 379.291809,9.440401 
	C397.916046,10.031408 416.416473,9.705126 434.708923,11.499124 
	C448.391266,12.840998 458.819305,20.664120 461.740173,35.108906 
	C464.881958,50.646000 462.266296,64.673523 448.402588,74.687622 
	C447.605804,75.263161 446.793915,75.817818 445.688812,76.592743 
	C451.178131,86.405739 456.586304,96.073723 462.538116,106.713501 
	C466.918732,92.266762 470.990692,78.848495 475.056061,65.428246 
	C480.214569,48.399471 485.448730,31.392796 490.450897,14.318187 
	C491.386261,11.125310 492.556549,9.709502 496.187073,9.839681 
	C505.006561,10.155918 513.845398,9.991029 522.675476,9.911897 
	C525.041260,9.890696 526.521118,10.165107 527.360657,12.974650 
	C537.692200,47.549042 548.192749,82.072922 558.634033,116.614571 
	C558.722229,116.906242 558.596802,117.262466 558.554871,117.795143 
	C548.790344,117.795143 539.014404,117.795143 528.851379,117.795143 
	C527.106140,110.393257 525.359070,102.983452 523.548584,95.304863 
	C513.715332,95.304863 503.948639,95.304863 493.735748,95.304863 
	C492.010803,102.608635 490.262146,110.012978 488.375366,118.002007 
	C485.267609,118.002007 482.149994,118.002098 479.032410,118.001999 
	C466.202728,118.001617 453.370483,118.125931 440.546387,117.858124 
	C438.747162,117.820557 436.220123,116.291901 435.339294,114.719849 
	C430.788422,106.597519 426.663116,98.236740 422.390564,89.958519 
	C418.048706,81.545952 418.049286,81.545647 407.663330,82.303513 
	C407.663330,90.953102 407.663330,99.692421 407.663330,108.919678 
M429.483032,34.710236 
	C422.399445,33.781067 415.315857,32.851898 408.075867,31.902214 
	C408.075867,41.946880 408.075867,50.475948 408.075867,59.001942 
	C413.288605,59.001942 418.132782,59.420341 422.871338,58.891731 
	C428.297852,58.286381 432.629700,55.548409 434.168365,49.820454 
	C435.686127,44.170357 435.454773,38.917759 429.483032,34.710236 
M511.401154,73.007019 
	C513.534729,73.007019 515.668274,73.007019 518.315002,73.007019 
	C515.085449,59.038315 511.972229,45.572674 508.859009,32.107033 
	C508.622650,32.147373 508.386292,32.187710 508.149963,32.228046 
	C505.140076,45.695797 502.130219,59.163548 499.036407,73.006874 
	C503.166046,73.006874 506.801300,73.006874 511.401154,73.007019 
z"/>
<path fill="#FDD784" opacity="1.000000" stroke="none" 
	d="
M99.743896,105.241905 
	C82.224686,86.352287 82.363106,47.815887 94.645248,28.844429 
	C104.842613,13.093205 124.470009,4.997993 144.890640,8.513251 
	C169.163635,12.691664 184.222107,29.757538 185.644089,56.142895 
	C186.138855,65.323715 185.637436,74.962898 183.358444,83.818161 
	C173.720947,121.265450 127.531670,133.056061 99.743896,105.241905 
M118.887360,83.437355 
	C122.572388,91.199501 128.292282,95.834801 137.301437,95.271751 
	C146.153763,94.718506 151.146454,89.149551 153.899109,81.495575 
	C158.150208,69.675041 158.244980,57.619919 153.913239,45.783535 
	C150.580429,36.676750 143.803772,32.284496 134.835678,32.705570 
	C126.313858,33.105690 119.871292,38.603512 117.131378,48.441570 
	C113.919647,59.973743 114.163406,71.470238 118.887360,83.437355 
z"/>
<path fill="#FDD784" opacity="1.000000" stroke="none" 
	d="
M365.383789,42.747993 
	C369.054260,57.301167 369.174835,71.464897 365.023956,85.516487 
	C358.476166,107.682098 341.420227,120.034615 317.691193,120.001793 
	C294.440216,119.969635 277.430420,107.447014 270.942078,85.401184 
	C266.854401,71.512299 266.664459,57.418743 270.421844,43.506954 
	C275.806732,23.569395 288.815948,11.758243 309.414124,8.421844 
	C335.667511,4.169434 357.617737,17.437050 365.383789,42.747993 
M299.419556,79.822334 
	C299.777618,80.752075 300.094635,81.700157 300.500244,82.608673 
	C303.959167,90.356644 309.313385,95.482437 318.378571,95.320984 
	C327.224609,95.163422 332.650330,90.031479 335.541931,82.346718 
	C340.348633,69.572487 340.542480,56.564270 335.038940,43.925552 
	C331.154114,35.004002 323.077148,31.032923 313.802429,33.044331 
	C305.522736,34.839939 301.336700,40.922592 299.115875,48.493114 
	C296.138458,58.642689 296.428558,68.874779 299.419556,79.822334 
z"/>
<path fill="#FDD784" opacity="1.000000" stroke="none" 
	d="
M708.190796,100.770599 
	C695.006958,78.620979 694.286072,55.821762 704.478333,33.073891 
	C712.949463,14.167197 734.366760,4.736285 756.621643,8.456558 
	C781.103577,12.549129 796.407532,29.814537 797.636780,56.363422 
	C798.083801,66.018318 797.234741,76.118103 794.789490,85.441139 
	C789.842773,104.300835 777.205017,116.158768 757.608276,119.197052 
	C738.038269,122.231194 720.895081,117.700287 708.190796,100.770599 
M765.437256,82.743912 
	C769.981384,70.599251 770.342773,58.324207 766.012573,46.105808 
	C762.863770,37.220913 756.542114,32.720787 748.169800,32.668831 
	C739.541931,32.615288 733.169434,37.150520 729.931519,46.256271 
	C725.767090,57.967426 725.916626,69.849464 730.100708,81.494438 
	C732.852478,89.153084 737.848999,94.706612 746.701111,95.269318 
	C755.721680,95.842728 761.422363,91.189873 765.437256,82.743912 
z"/>
<path fill="#FDD884" opacity="1.000000" stroke="none" 
	d="
M633.752441,23.242794 
	C640.078186,29.304884 643.845703,36.471169 645.842224,44.525532 
	C649.023010,57.357933 649.000854,70.291763 645.739990,83.080757 
	C640.546204,103.450607 624.963257,116.129173 602.021545,117.646271 
	C588.618591,118.532593 575.109192,117.807755 561.323059,117.807755 
	C561.323059,81.988533 561.323059,46.290951 561.323059,9.931957 
	C578.735840,10.749119 596.343384,7.643559 613.352051,12.576607 
	C620.475403,14.642588 626.806458,19.440525 633.752441,23.242794 
M617.865051,51.974277 
	C613.654602,37.503788 604.176331,31.164879 590.114136,33.471931 
	C590.114136,53.946003 590.114136,74.428192 590.114136,94.883636 
	C606.859924,95.681686 616.289795,88.183319 618.104919,72.153214 
	C618.825134,65.792534 618.072266,59.265049 617.865051,51.974277 
z"/>
<path fill="#FDD884" opacity="1.000000" stroke="none" 
	d="
M53.010963,33.884777 
	C48.729179,33.884777 44.944954,33.884777 40.922058,33.884777 
	C40.922058,41.058521 40.922058,47.664486 40.922058,54.861801 
	C52.468231,54.861801 64.021629,54.861801 75.839645,54.861801 
	C75.839645,63.026863 75.839645,70.606644 75.839645,78.672272 
	C64.362000,78.672272 52.949688,78.672272 40.919186,78.672272 
	C40.919186,91.838066 40.919186,104.541359 40.919186,117.619972 
	C31.094549,117.619972 21.882376,117.619972 12.331697,117.619972 
	C12.331697,82.004387 12.331697,46.309315 12.331697,10.305372 
	C35.393719,10.305372 58.434792,10.305372 81.767822,10.305372 
	C81.767822,17.981585 81.767822,25.564316 81.767822,33.884777 
	C72.352242,33.884777 62.930382,33.884777 53.010963,33.884777 
z"/>
<path fill="#FDD784" opacity="1.000000" stroke="none" 
	d="
M241.999817,75.000000 
	C241.999817,89.463120 241.999817,103.426247 241.999817,117.694839 
	C232.423325,117.694839 223.192398,117.694839 213.376984,117.694839 
	C213.376984,89.877525 213.376984,62.155441 213.376984,33.898800 
	C203.736053,33.898800 194.663879,33.898800 185.326080,33.898800 
	C185.326080,25.783407 185.326080,18.206642 185.326080,10.311916 
	C213.500824,10.311916 241.575790,10.311916 270.055542,10.311916 
	C270.055542,17.948299 270.055542,25.647640 270.055542,33.787910 
	C260.823975,33.787910 251.732300,33.787910 241.999817,33.787910 
	C241.999817,47.642040 241.999817,61.071022 241.999817,75.000000 
z"/>
<path fill="#FCD783" opacity="1.000000" stroke="none" 
	d="
M682.771484,118.003632 
	C674.799133,118.003899 667.303284,118.003899 659.401550,118.003899 
	C659.401550,82.131180 659.401550,46.413666 659.401550,10.344545 
	C668.497742,10.344545 677.736816,10.344545 687.326416,10.344545 
	C687.326416,45.912868 687.326416,81.504349 687.326416,117.639030 
	C686.052673,117.752815 684.650391,117.878082 682.771484,118.003632 
z"/>
<path fill="#2E4087" opacity="1.000000" stroke="none" 
	d="
M429.834137,34.887215 
	C435.454773,38.917759 435.686127,44.170357 434.168365,49.820454 
	C432.629700,55.548409 428.297852,58.286381 422.871338,58.891731 
	C418.132782,59.420341 413.288605,59.001942 408.075867,59.001942 
	C408.075867,50.475948 408.075867,41.946880 408.075867,31.902214 
	C415.315857,32.851898 422.399445,33.781067 429.834137,34.887215 
z"/>
<path fill="#324387" opacity="1.000000" stroke="none" 
	d="
M510.918854,73.006943 
	C506.801300,73.006874 503.166046,73.006874 499.036407,73.006874 
	C502.130219,59.163548 505.140076,45.695797 508.149963,32.228046 
	C508.386292,32.187710 508.622650,32.147373 508.859009,32.107033 
	C511.972229,45.572674 515.085449,59.038315 518.315002,73.007019 
	C515.668274,73.007019 513.534729,73.007019 510.918854,73.006943 
z"/>
<path fill="#2E4087" opacity="1.000000" stroke="none" 
	d="
M118.726105,83.087769 
	C114.163406,71.470238 113.919647,59.973743 117.131378,48.441570 
	C119.871292,38.603512 126.313858,33.105690 134.835678,32.705570 
	C143.803772,32.284496 150.580429,36.676750 153.913239,45.783535 
	C158.244980,57.619919 158.150208,69.675041 153.899109,81.495575 
	C151.146454,89.149551 146.153763,94.718506 137.301437,95.271751 
	C128.292282,95.834801 122.572388,91.199501 118.726105,83.087769 
z"/>
<path fill="#2F4087" opacity="1.000000" stroke="none" 
	d="
M299.280396,79.442612 
	C296.428558,68.874779 296.138458,58.642689 299.115875,48.493114 
	C301.336700,40.922592 305.522736,34.839939 313.802429,33.044331 
	C323.077148,31.032923 331.154114,35.004002 335.038940,43.925552 
	C340.542480,56.564270 340.348633,69.572487 335.541931,82.346718 
	C332.650330,90.031479 327.224609,95.163422 318.378571,95.320984 
	C309.313385,95.482437 303.959167,90.356644 300.500244,82.608673 
	C300.094635,81.700157 299.777618,80.752075 299.280396,79.442612 
z"/>
<path fill="#2F4087" opacity="1.000000" stroke="none" 
	d="
M765.276245,83.092041 
	C761.422363,91.189873 755.721680,95.842728 746.701111,95.269318 
	C737.848999,94.706612 732.852478,89.153084 730.100708,81.494438 
	C725.916626,69.849464 725.767090,57.967426 729.931519,46.256271 
	C733.169434,37.150520 739.541931,32.615288 748.169800,32.668831 
	C756.542114,32.720787 762.863770,37.220913 766.012573,46.105808 
	C770.342773,58.324207 769.981384,70.599251 765.276245,83.092041 
z"/>
<path fill="#2E4087" opacity="1.000000" stroke="none" 
	d="
M617.927551,52.393890 
	C618.072266,59.265049 618.825134,65.792534 618.104919,72.153214 
	C616.289795,88.183319 606.859924,95.681686 590.114136,94.883636 
	C590.114136,74.428192 590.114136,53.946003 590.114136,33.471931 
	C604.176331,31.164879 613.654602,37.503788 617.927551,52.393890 
z"/>
</svg>