<svg version="1.1" id="Layer_1" xmlns="http://www.w3.org/2000/svg" xmlns:xlink="http://www.w3.org/1999/xlink" x="0px" y="0px"
	 width="100%" viewBox="0 0 1600 300" enable-background="new 0 0 1600 300" xml:space="preserve">
<path fill="#2D3F87" opacity="1.000000" stroke="none" 
	d="
M1209.000000,301.000000 
	C806.052917,301.000000 403.605835,301.000000 1.079386,301.000000 
	C1.079386,201.066132 1.079386,101.132172 1.079386,1.099109 
	C534.333313,1.099109 1067.666626,1.099109 1600.974121,1.099109 
	C1600.974121,101.060890 1600.974121,201.030457 1600.974121,301.000000 
	C1470.465454,301.000000 1339.982666,301.000000 1209.000000,301.000000 
M871.489197,169.949966 
	C873.920166,168.201599 876.506531,166.632172 878.757324,164.676422 
	C895.917175,149.765579 899.843628,130.230896 897.428101,108.885078 
	C894.719238,84.946609 880.763123,70.205971 857.889221,64.181000 
	C848.959106,61.828835 839.551147,60.455498 830.322693,60.235764 
	C806.842651,59.676678 783.341125,60.019962 759.848206,60.002235 
	C758.727844,60.001389 757.607483,60.002129 756.281311,60.002129 
	C756.281311,120.850952 756.281311,181.223694 756.281311,241.727448 
	C772.304932,241.727448 788.045837,241.727448 804.381104,241.727448 
	C804.381104,221.407272 804.381104,201.349899 804.381104,180.999695 
	C809.459290,180.999695 813.967651,181.281708 818.421143,180.908691 
	C821.861328,180.620544 823.389954,182.094254 824.831543,184.928345 
	C833.808350,202.576111 843.045654,220.091843 851.951721,237.774673 
	C853.623047,241.093170 855.537231,242.116714 859.193787,242.092224 
	C885.351501,241.916962 911.511536,241.918488 937.669250,242.088898 
	C941.391663,242.113144 942.776245,241.028809 943.533447,237.369431 
	C945.880737,226.024902 948.681213,214.774109 951.308167,203.476822 
	C968.417236,203.476822 985.032104,203.476822 1001.991394,203.476822 
	C1005.008423,216.343353 1007.996216,229.084976 1010.956787,241.710602 
	C1028.142212,241.710602 1044.873901,241.710602 1062.019043,241.710602 
	C1043.515747,180.944412 1025.128052,120.558258 1006.746277,60.191349 
	C987.034729,60.191349 967.740967,60.191349 948.262634,60.191349 
	C931.702759,114.545052 915.180237,168.776123 898.281128,224.243301 
	C888.324524,206.440399 879.056519,189.923920 869.924500,173.332550 
	C869.570618,172.689560 870.522217,171.327988 871.489197,169.949966 
M284.475067,78.976791 
	C275.289917,88.041504 268.786072,98.792183 264.915314,111.047508 
	C256.487152,137.732162 256.473480,164.557480 265.438965,191.012909 
	C273.655884,215.259476 289.822083,232.281250 314.423035,240.629669 
	C326.427032,244.703278 338.860321,245.866699 351.387695,244.795532 
	C383.707275,242.031998 407.109528,226.266068 419.887573,196.085251 
	C428.686066,175.303879 429.808289,153.480789 427.006378,131.356400 
	C422.355316,94.630440 400.075012,62.298008 354.880157,57.565346 
	C328.870087,54.841652 304.819092,59.945503 284.475067,78.976791 
M727.974365,200.466812 
	C741.374268,169.508759 742.157410,137.980942 730.562622,106.556381 
	C721.837646,82.909691 704.700562,66.950409 680.151733,60.672287 
	C669.356079,57.911407 657.750671,57.020573 646.566772,57.316174 
	C612.604492,58.213837 585.851685,78.650406 574.963745,110.785652 
	C568.580139,129.626770 567.615906,148.984299 570.113647,168.533051 
	C575.581055,211.322128 601.827759,240.069016 642.318237,244.441803 
	C677.414307,248.231995 710.586487,235.545975 727.974365,200.466812 
M1438.471313,76.012482 
	C1419.970825,60.253662 1398.108765,55.790710 1374.580078,57.151344 
	C1340.712036,59.109898 1314.468628,78.933273 1303.923218,111.200279 
	C1295.229492,137.800827 1295.546753,164.683731 1304.479370,191.149841 
	C1311.912476,213.173599 1326.207520,229.475845 1347.943481,238.598953 
	C1360.430176,243.839920 1373.577515,245.666534 1387.037842,244.951431 
	C1421.097412,243.141907 1445.817261,227.382751 1459.090698,195.476913 
	C1468.305542,173.327179 1469.112671,150.172501 1465.277954,126.787163 
	C1462.065063,107.194641 1454.003174,89.988663 1438.471313,76.012482 
M1065.999756,233.448837 
	C1065.999756,236.218613 1065.999756,238.988373 1065.999756,242.015137 
	C1085.786499,242.015137 1104.924561,242.208694 1124.055298,241.919632 
	C1131.678833,241.804443 1139.406982,241.251984 1146.880005,239.817184 
	C1179.511475,233.551987 1200.886841,214.705429 1209.568970,182.253143 
	C1213.445190,167.764252 1213.750488,152.962921 1212.885010,138.107895 
	C1210.433228,96.020050 1186.154785,67.558670 1144.399658,62.364544 
	C1118.938721,59.197334 1092.899902,60.674561 1067.120117,60.090618 
	C1066.859253,60.084709 1066.590820,60.417530 1065.999756,60.807312 
	C1065.999756,117.887627 1065.999756,175.173508 1065.999756,233.448837 
M203.500000,60.000858 
	C180.418823,60.000858 157.337662,60.000858 134.394669,60.000858 
	C134.394669,121.076736 134.394669,181.446930 134.394669,241.623672 
	C150.533157,241.623672 166.278610,241.623672 182.589417,241.623672 
	C182.589417,219.357300 182.589417,197.460770 182.589417,175.082458 
	C202.909592,175.082458 222.660233,175.082458 242.571259,175.082458 
	C242.571259,161.524704 242.571259,148.466110 242.571259,134.836273 
	C222.384308,134.836273 202.502594,134.836273 182.549377,134.836273 
	C182.549377,123.176826 182.549377,112.093140 182.549377,100.336075 
	C206.039474,100.336075 229.248169,100.336075 252.636230,100.336075 
	C252.636230,86.591843 252.636230,73.525230 252.636230,60.000858 
	C236.407623,60.000858 220.453812,60.000858 203.500000,60.000858 
M523.995850,165.500000 
	C523.995850,143.918228 523.995850,122.336441 523.995850,100.135727 
	C540.405029,100.135727 556.117493,100.135727 571.764404,100.135727 
	C571.764404,86.441223 571.764404,73.376320 571.764404,60.418915 
	C523.550781,60.418915 475.688843,60.418915 427.998352,60.418915 
	C427.998352,73.900841 427.998352,86.960922 427.998352,100.527489 
	C444.027832,100.527489 459.617004,100.527489 475.816650,100.527489 
	C475.816650,147.904709 475.816650,194.770721 475.816650,241.692383 
	C492.175690,241.692383 507.909729,241.692383 523.995850,241.692383 
	C523.995850,216.426178 523.995850,191.463089 523.995850,165.500000 
M1231.003540,197.500000 
	C1231.003540,212.247833 1231.003540,226.995667 1231.003540,241.668335 
	C1247.446533,241.668335 1263.187378,241.668335 1278.868896,241.668335 
	C1278.868896,180.993622 1278.868896,120.648369 1278.868896,60.334099 
	C1262.752075,60.334099 1247.024902,60.334099 1231.003540,60.334099 
	C1231.003540,105.944122 1231.003540,151.222061 1231.003540,197.500000 
z"/>
<path fill="#FED884" opacity="1.000000" stroke="none" 
	d="
M871.177368,170.125610 
	C870.522217,171.327988 869.570618,172.689560 869.924500,173.332550 
	C879.056519,189.923920 888.324524,206.440399 898.281128,224.243301 
	C915.180237,168.776123 931.702759,114.545052 948.262634,60.191349 
	C967.740967,60.191349 987.034729,60.191349 1006.746277,60.191349 
	C1025.128052,120.558258 1043.515747,180.944412 1062.019043,241.710602 
	C1044.873901,241.710602 1028.142212,241.710602 1010.956787,241.710602 
	C1007.996216,229.084976 1005.008423,216.343353 1001.991394,203.476822 
	C985.032104,203.476822 968.417236,203.476822 951.308167,203.476822 
	C948.681213,214.774109 945.880737,226.024902 943.533447,237.369431 
	C942.776245,241.028809 941.391663,242.113144 937.669250,242.088898 
	C911.511536,241.918488 885.351501,241.916962 859.193787,242.092224 
	C855.537231,242.116714 853.623047,241.093170 851.951721,237.774673 
	C843.045654,220.091843 833.808350,202.576111 824.831543,184.928345 
	C823.389954,182.094254 821.861328,180.620544 818.421143,180.908691 
	C813.967651,181.281708 809.459290,180.999695 804.381104,180.999695 
	C804.381104,201.349899 804.381104,221.407272 804.381104,241.727448 
	C788.045837,241.727448 772.304932,241.727448 756.281311,241.727448 
	C756.281311,181.223694 756.281311,120.850952 756.281311,60.002129 
	C757.607483,60.002129 758.727844,60.001389 759.848206,60.002235 
	C783.341125,60.019962 806.842651,59.676678 830.322693,60.235764 
	C839.551147,60.455498 848.959106,61.828835 857.889221,64.181000 
	C880.763123,70.205971 894.719238,84.946609 897.428101,108.885078 
	C899.843628,130.230896 895.917175,149.765579 878.757324,164.676422 
	C876.506531,166.632172 873.920166,168.201599 871.177368,170.125610 
M821.385193,143.000183 
	C827.065491,141.948334 833.033081,141.664917 838.361816,139.672684 
	C847.376099,136.302521 851.895203,127.017265 850.869507,116.409149 
	C849.948242,106.880791 845.456177,101.132347 835.400208,99.611885 
	C825.335388,98.090065 815.032654,98.141365 804.618591,97.489632 
	C804.618591,113.337860 804.618591,128.027145 804.618591,143.005066 
	C810.128540,143.005066 815.271912,143.005066 821.385193,143.000183 
M984.223083,128.178177 
	C981.808655,117.512047 979.394165,106.845917 976.979736,96.179787 
	C976.683167,96.186165 976.386658,96.192543 976.090149,96.198929 
	C970.846741,119.356697 965.603394,142.514465 960.360535,165.669983 
	C971.435486,165.669983 982.148315,165.669983 993.175964,165.669983 
	C990.200073,153.183304 987.317078,141.086273 984.223083,128.178177 
z"/>
<path fill="#FED884" opacity="1.000000" stroke="none" 
	d="
M284.727295,78.726326 
	C304.819092,59.945503 328.870087,54.841652 354.880157,57.565346 
	C400.075012,62.298008 422.355316,94.630440 427.006378,131.356400 
	C429.808289,153.480789 428.686066,175.303879 419.887573,196.085251 
	C407.109528,226.266068 383.707275,242.031998 351.387695,244.795532 
	C338.860321,245.866699 326.427032,244.703278 314.423035,240.629669 
	C289.822083,232.281250 273.655884,215.259476 265.438965,191.012909 
	C256.473480,164.557480 256.487152,137.732162 264.915314,111.047508 
	C268.786072,98.792183 275.289917,88.041504 284.727295,78.726326 
M361.460052,103.930122 
	C343.161011,92.635788 322.585266,99.129074 313.943604,119.196838 
	C307.552948,134.037170 307.393341,149.639755 309.507629,165.338913 
	C310.881683,175.541733 314.004547,185.145432 320.900970,193.115067 
	C332.486084,206.503036 353.291534,207.318115 365.106659,194.157120 
	C369.413666,189.359543 372.821594,183.181152 374.872833,177.042343 
	C380.496704,160.211868 380.316772,142.949600 375.771057,125.849754 
	C373.508667,117.339233 369.296143,109.810738 361.460052,103.930122 
z"/>
<path fill="#FED884" opacity="1.000000" stroke="none" 
	d="
M727.833008,200.813034 
	C710.586487,235.545975 677.414307,248.231995 642.318237,244.441803 
	C601.827759,240.069016 575.581055,211.322128 570.113647,168.533051 
	C567.615906,148.984299 568.580139,129.626770 574.963745,110.785652 
	C585.851685,78.650406 612.604492,58.213837 646.566772,57.316174 
	C657.750671,57.020573 669.356079,57.911407 680.151733,60.672287 
	C704.700562,66.950409 721.837646,82.909691 730.562622,106.556381 
	C742.157410,137.980942 741.374268,169.508759 727.833008,200.813034 
M635.631042,104.039925 
	C629.503235,108.512085 625.523376,114.559807 622.928650,121.572884 
	C618.750488,132.865509 617.935608,144.590775 618.601074,156.493271 
	C619.172852,166.721405 620.929077,176.668549 625.888794,185.786911 
	C631.813232,196.678818 640.542542,203.264099 653.404053,203.336166 
	C666.475647,203.409409 675.963867,197.088882 681.276306,185.677979 
	C691.794128,163.086349 692.281860,139.750214 682.120544,117.037216 
	C673.853088,98.557510 653.673523,93.248199 635.631042,104.039925 
z"/>
<path fill="#FED884" opacity="1.000000" stroke="none" 
	d="
M1438.736084,76.247437 
	C1454.003174,89.988663 1462.065063,107.194641 1465.277954,126.787163 
	C1469.112671,150.172501 1468.305542,173.327179 1459.090698,195.476913 
	C1445.817261,227.382751 1421.097412,243.141907 1387.037842,244.951431 
	C1373.577515,245.666534 1360.430176,243.839920 1347.943481,238.598953 
	C1326.207520,229.475845 1311.912476,213.173599 1304.479370,191.149841 
	C1295.546753,164.683731 1295.229492,137.800827 1303.923218,111.200279 
	C1314.468628,78.933273 1340.712036,59.109898 1374.580078,57.151344 
	C1398.108765,55.790710 1419.970825,60.253662 1438.736084,76.247437 
M1390.494629,202.420120 
	C1401.220215,199.594315 1408.062012,192.264038 1411.947510,182.427780 
	C1420.092529,161.808029 1420.410889,140.746872 1412.606201,120.033272 
	C1407.639038,106.849968 1397.971191,98.829750 1383.093506,98.673347 
	C1369.071777,98.525940 1358.249023,105.442932 1352.843140,119.654564 
	C1344.838867,140.696594 1344.961304,162.112488 1353.562256,182.946487 
	C1360.137695,198.874084 1372.529907,205.136398 1390.494629,202.420120 
z"/>
<path fill="#FED984" opacity="1.000000" stroke="none" 
	d="
M1065.999756,232.954102 
	C1065.999756,175.173508 1065.999756,117.887627 1065.999756,60.807312 
	C1066.590820,60.417530 1066.859253,60.084709 1067.120117,60.090618 
	C1092.899902,60.674561 1118.938721,59.197334 1144.399658,62.364544 
	C1186.154785,67.558670 1210.433228,96.020050 1212.885010,138.107895 
	C1213.750488,152.962921 1213.445190,167.764252 1209.568970,182.253143 
	C1200.886841,214.705429 1179.511475,233.551987 1146.880005,239.817184 
	C1139.406982,241.251984 1131.678833,241.804443 1124.055298,241.919632 
	C1104.924561,242.208694 1085.786499,242.015137 1065.999756,242.015137 
	C1065.999756,238.988373 1065.999756,236.218613 1065.999756,232.954102 
M1161.108643,173.501526 
	C1165.010986,157.858292 1165.245972,142.150345 1160.968018,126.608665 
	C1155.467163,106.623573 1134.348511,94.518974 1114.593994,99.643471 
	C1114.593994,134.006317 1114.593994,168.382950 1114.593994,202.730728 
	C1138.692505,204.653397 1155.201538,194.640060 1161.108643,173.501526 
z"/>
<path fill="#FFD984" opacity="1.000000" stroke="none" 
	d="
M204.000000,60.000858 
	C220.453812,60.000858 236.407623,60.000858 252.636230,60.000858 
	C252.636230,73.525230 252.636230,86.591843 252.636230,100.336075 
	C229.248169,100.336075 206.039474,100.336075 182.549377,100.336075 
	C182.549377,112.093140 182.549377,123.176826 182.549377,134.836273 
	C202.502594,134.836273 222.384308,134.836273 242.571259,134.836273 
	C242.571259,148.466110 242.571259,161.524704 242.571259,175.082458 
	C222.660233,175.082458 202.909592,175.082458 182.589417,175.082458 
	C182.589417,197.460770 182.589417,219.357300 182.589417,241.623672 
	C166.278610,241.623672 150.533157,241.623672 134.394669,241.623672 
	C134.394669,181.446930 134.394669,121.076736 134.394669,60.000858 
	C157.337662,60.000858 180.418823,60.000858 204.000000,60.000858 
z"/>
<path fill="#FFD984" opacity="1.000000" stroke="none" 
	d="
M523.995850,166.000000 
	C523.995850,191.463089 523.995850,216.426178 523.995850,241.692383 
	C507.909729,241.692383 492.175690,241.692383 475.816650,241.692383 
	C475.816650,194.770721 475.816650,147.904709 475.816650,100.527489 
	C459.617004,100.527489 444.027832,100.527489 427.998352,100.527489 
	C427.998352,86.960922 427.998352,73.900841 427.998352,60.418915 
	C475.688843,60.418915 523.550781,60.418915 571.764404,60.418915 
	C571.764404,73.376320 571.764404,86.441223 571.764404,100.135727 
	C556.117493,100.135727 540.405029,100.135727 523.995850,100.135727 
	C523.995850,122.336441 523.995850,143.918228 523.995850,166.000000 
z"/>
<path fill="#FFD984" opacity="1.000000" stroke="none" 
	d="
M1231.003540,197.000000 
	C1231.003540,151.222061 1231.003540,105.944122 1231.003540,60.334099 
	C1247.024902,60.334099 1262.752075,60.334099 1278.868896,60.334099 
	C1278.868896,120.648369 1278.868896,180.993622 1278.868896,241.668335 
	C1263.187378,241.668335 1247.446533,241.668335 1231.003540,241.668335 
	C1231.003540,226.995667 1231.003540,212.247833 1231.003540,197.000000 
z"/>
<path fill="#304187" opacity="1.000000" stroke="none" 
	d="
M820.900269,143.002625 
	C815.271912,143.005066 810.128540,143.005066 804.618591,143.005066 
	C804.618591,128.027145 804.618591,113.337860 804.618591,97.489632 
	C815.032654,98.141365 825.335388,98.090065 835.400208,99.611885 
	C845.456177,101.132347 849.948242,106.880791 850.869507,116.409149 
	C851.895203,127.017265 847.376099,136.302521 838.361816,139.672684 
	C833.033081,141.664917 827.065491,141.948334 820.900269,143.002625 
z"/>
<path fill="#2F4187" opacity="1.000000" stroke="none" 
	d="
M984.328552,128.583710 
	C987.317078,141.086273 990.200073,153.183304 993.175964,165.669983 
	C982.148315,165.669983 971.435486,165.669983 960.360535,165.669983 
	C965.603394,142.514465 970.846741,119.356697 976.090149,96.198929 
	C976.386658,96.192543 976.683167,96.186165 976.979736,96.179787 
	C979.394165,106.845917 981.808655,117.512047 984.328552,128.583710 
z"/>
<path fill="#2E4087" opacity="1.000000" stroke="none" 
	d="
M361.759674,104.136612 
	C369.296143,109.810738 373.508667,117.339233 375.771057,125.849754 
	C380.316772,142.949600 380.496704,160.211868 374.872833,177.042343 
	C372.821594,183.181152 369.413666,189.359543 365.106659,194.157120 
	C353.291534,207.318115 332.486084,206.503036 320.900970,193.115067 
	C314.004547,185.145432 310.881683,175.541733 309.507629,165.338913 
	C307.393341,149.639755 307.552948,134.037170 313.943604,119.196838 
	C322.585266,99.129074 343.161011,92.635788 361.759674,104.136612 
z"/>
<path fill="#2E4087" opacity="1.000000" stroke="none" 
	d="
M635.936096,103.839119 
	C653.673523,93.248199 673.853088,98.557510 682.120544,117.037216 
	C692.281860,139.750214 691.794128,163.086349 681.276306,185.677979 
	C675.963867,197.088882 666.475647,203.409409 653.404053,203.336166 
	C640.542542,203.264099 631.813232,196.678818 625.888794,185.786911 
	C620.929077,176.668549 619.172852,166.721405 618.601074,156.493271 
	C617.935608,144.590775 618.750488,132.865509 622.928650,121.572884 
	C625.523376,114.559807 629.503235,108.512085 635.936096,103.839119 
z"/>
<path fill="#2E4087" opacity="1.000000" stroke="none" 
	d="
M1390.088623,202.557007 
	C1372.529907,205.136398 1360.137695,198.874084 1353.562256,182.946487 
	C1344.961304,162.112488 1344.838867,140.696594 1352.843140,119.654564 
	C1358.249023,105.442932 1369.071777,98.525940 1383.093506,98.673347 
	C1397.971191,98.829750 1407.639038,106.849968 1412.606201,120.033272 
	C1420.410889,140.746872 1420.092529,161.808029 1411.947510,182.427780 
	C1408.062012,192.264038 1401.220215,199.594315 1390.088623,202.557007 
z"/>
<path fill="#2F4187" opacity="1.000000" stroke="none" 
	d="
M1161.026367,173.899353 
	C1155.201538,194.640060 1138.692505,204.653397 1114.593994,202.730728 
	C1114.593994,168.382950 1114.593994,134.006317 1114.593994,99.643471 
	C1134.348511,94.518974 1155.467163,106.623573 1160.968018,126.608665 
	C1165.245972,142.150345 1165.010986,157.858292 1161.026367,173.899353 
z"/>
</svg>