<svg version="1.1" id="Layer_1" xmlns="http://www.w3.org/2000/svg" xmlns:xlink="http://www.w3.org/1999/xlink" x="0px" y="0px"
	 width="100%" viewBox="0 0 234 234" enable-background="new 0 0 234 234" xml:space="preserve">
<path fill="#2D3F87" opacity="1.000000" stroke="none" 
	d="
M157.000000,235.000000 
	C104.666672,235.000000 52.833340,235.000000 1.000007,235.000000 
	C1.000005,157.000015 1.000005,79.000015 1.000002,1.000017 
	C78.999992,1.000012 156.999985,1.000012 234.999969,1.000006 
	C234.999985,78.999985 234.999985,156.999969 235.000000,234.999969 
	C209.166672,235.000000 183.333328,235.000000 157.000000,235.000000 
M83.549988,65.007500 
	C84.074234,64.806038 84.598473,64.604576 86.043251,64.358620 
	C99.939949,64.353722 113.836868,64.395287 127.733246,64.326180 
	C135.820465,64.285957 143.906784,64.068336 152.505493,63.881432 
	C152.597855,63.586304 152.690231,63.291180 152.896866,62.065449 
	C152.861603,49.715603 152.826340,37.365757 152.870926,24.503153 
	C152.578445,24.388613 152.285965,24.274071 151.065002,24.029087 
	C112.160828,24.029087 73.256653,24.029087 33.934952,24.029087 
	C33.934952,84.951309 33.934952,145.294037 33.934952,205.994644 
	C48.569828,205.994644 63.540199,206.091187 78.504128,205.825089 
	C79.806458,205.801926 81.066338,203.390762 82.612358,201.846085 
	C82.520630,201.533325 82.428902,201.220551 82.272125,199.984344 
	C82.272125,179.911804 82.272125,159.839249 82.272125,139.079361 
	C102.555725,139.079361 122.559731,139.079361 142.756668,139.079361 
	C142.756668,127.268852 142.756668,116.145538 142.937729,104.353889 
	C142.877701,103.900146 142.817657,103.446404 142.859009,102.174332 
	C142.989380,98.485283 140.328720,99.008270 138.046829,99.007019 
	C123.607620,98.999115 109.168419,99.002380 94.729210,99.002014 
	C90.640572,99.001907 86.551933,99.002007 82.332535,99.002007 
	C82.332535,87.326012 82.332535,76.236397 82.663666,65.190422 
	C82.663666,65.190422 82.979187,65.080856 83.549988,65.007500 
z"/>
<path fill="#FFD984" opacity="1.000000" stroke="none" 
	d="
M82.345940,202.088837 
	C81.066338,203.390762 79.806458,205.801926 78.504128,205.825089 
	C63.540199,206.091187 48.569828,205.994644 33.934952,205.994644 
	C33.934952,145.294037 33.934952,84.951309 33.934952,24.029087 
	C73.256653,24.029087 112.160828,24.029087 151.643677,24.253746 
	C152.385193,24.685841 152.574768,24.865009 152.791077,25.015909 
	C152.826340,37.365757 152.861603,49.715603 152.682922,62.664070 
	C152.270370,63.456734 152.111877,63.679348 151.993515,63.930534 
	C143.906784,64.068336 135.820465,64.285957 127.733246,64.326180 
	C113.836868,64.395287 99.939949,64.353722 85.240616,64.250824 
	C83.951492,64.150757 83.465012,64.158478 82.728966,64.200912 
	C82.430443,64.539337 82.381493,64.843056 82.332535,65.146774 
	C82.332535,76.236397 82.332535,87.326012 82.332535,99.002007 
	C86.551933,99.002007 90.640572,99.001907 94.729210,99.002014 
	C109.168419,99.002380 123.607620,98.999115 138.046829,99.007019 
	C140.328720,99.008270 142.989380,98.485283 142.678528,102.765312 
	C142.584259,103.911606 142.670471,104.466911 142.756668,105.022224 
	C142.756668,116.145538 142.756668,127.268852 142.756668,139.079361 
	C122.559731,139.079361 102.555725,139.079361 82.272125,139.079361 
	C82.272125,159.839249 82.272125,179.911804 82.225632,200.741943 
	C82.234734,201.695969 82.290337,201.892410 82.345940,202.088837 
z"/>
<path fill="#847C87" opacity="1.000000" stroke="none" 
	d="
M82.978531,64.166206 
	C83.465012,64.158478 83.951492,64.150757 84.780350,64.273071 
	C84.598473,64.604576 84.074234,64.806038 83.267502,64.814972 
	C82.985016,64.622437 82.978531,64.166206 82.978531,64.166206 
z"/>
<path fill="#D6BC83" opacity="1.000000" stroke="none" 
	d="
M142.847198,104.688057 
	C142.670471,104.466911 142.584259,103.911606 142.627838,103.174477 
	C142.817657,103.446404 142.877701,103.900146 142.847198,104.688057 
z"/>
<path fill="#E4C283" opacity="1.000000" stroke="none" 
	d="
M152.830994,24.759531 
	C152.574768,24.865009 152.385193,24.685841 152.107910,24.318966 
	C152.285965,24.274071 152.578445,24.388613 152.830994,24.759531 
z"/>
<path fill="#E4C283" opacity="1.000000" stroke="none" 
	d="
M152.249512,63.905983 
	C152.111877,63.679348 152.270370,63.456734 152.625793,63.129372 
	C152.690231,63.291180 152.597855,63.586304 152.249512,63.905983 
z"/>
<path fill="#757188" opacity="1.000000" stroke="none" 
	d="
M82.728966,64.200912 
	C82.978531,64.166206 82.985016,64.622437 82.982101,64.851646 
	C82.979187,65.080856 82.663666,65.190422 82.498100,65.168594 
	C82.381493,64.843056 82.430443,64.539337 82.728966,64.200912 
z"/>
<path fill="#757188" opacity="1.000000" stroke="none" 
	d="
M82.479149,201.967468 
	C82.290337,201.892410 82.234734,201.695969 82.258156,201.203674 
	C82.428902,201.220551 82.520630,201.533325 82.479149,201.967468 
z"/>
</svg>